<svg xmlns="http://www.w3.org/2000/svg" version="1.1" xmlns:xlink="http://www.w3.org/1999/xlink" xmlns:svgjs="http://svgjs.dev/svgjs" width="1500" height="1500" viewBox="0 0 1500 1500"><rect width="1500" height="1500" fill="#ececea"></rect><g transform="matrix(0.6666666666666666,0,0,0.6666666666666666,249.78425655976667,249.78425655976673)"><svg viewBox="0 0 343 343" data-background-color="#ececea" preserveAspectRatio="xMidYMid meet" height="1500" width="1500" xmlns="http://www.w3.org/2000/svg" xmlns:xlink="http://www.w3.org/1999/xlink"><g id="tight-bounds" transform="matrix(1,0,0,1,0.0740000000000407,0.07400000000001228)"><svg viewBox="0 0 342.85155851775386 342.85155851775386" height="342.85155851775386" width="342.85155851775386"><g><svg></svg></g><g><svg viewBox="0 0 342.85155851775386 342.85155851775386" height="342.85155851775386" width="342.85155851775386"><g><path d="M0 171.426c0-94.676 76.75-171.426 171.426-171.426 94.676 0 171.426 76.75 171.426 171.426 0 94.676-76.75 171.426-171.426 171.426-94.676 0-171.426-76.75-171.426-171.426zM171.426 336.953c91.418 0 165.527-74.109 165.527-165.527 0-91.418-74.109-165.527-165.527-165.527-91.418 0-165.527 74.109-165.527 165.527 0 91.418 74.109 165.527 165.527 165.527z" data-fill-palette-color="tertiary" fill="#335c91" stroke="transparent"></path><ellipse rx="164.56874808852186" ry="164.56874808852186" cx="171.42577925887693" cy="171.42577925887693" fill="#335c91" stroke="transparent" stroke-width="0" fill-opacity="1" data-fill-palette-color="tertiary"></ellipse></g><g transform="matrix(1,0,0,1,64.84655864529837,85.80342617090716)"><svg viewBox="0 0 213.1584412271571 171.24470617593954" height="171.24470617593954" width="213.1584412271571"><g><svg viewBox="0 0 213.1584412271571 171.24470617593954" height="171.24470617593954" width="213.1584412271571"><g><svg viewBox="0 0 213.1584412271571 171.24470617593954" height="171.24470617593954" width="213.1584412271571"><g transform="matrix(1,0,0,1,0,105.83609841362113)"><svg viewBox="0 0 213.1584412271571 65.40860776231841" height="65.40860776231841" width="213.1584412271571"><g id="textblocktransform"><svg viewBox="0 0 213.1584412271571 65.40860776231841" height="65.40860776231841" width="213.1584412271571" id="textblock"><g><svg viewBox="0 0 213.1584412271571 65.40860776231841" height="65.40860776231841" width="213.1584412271571"><g transform="matrix(1,0,0,1,0,0)"><svg width="213.1584412271571" viewBox="0.68 -36.23 183.76999999999998 56.400000000000006" height="65.40860776231841" data-palette-color="#ececea"><path d="M0.68-26.27L0.68-26.27Q1.46-27.39 2.76-28.2 4.05-29 5.64-29.54 7.23-30.08 9.06-30.37 10.89-30.66 12.65-30.81 14.4-30.96 16.06-31.01 17.72-31.05 18.99-31.05L18.99-31.05Q19.09-31.05 19.43-31.03 19.78-31.01 20.17-30.98 20.56-30.96 20.87-30.96 21.19-30.96 21.34-30.96L21.34-30.96Q21.53-29.88 21.12-29.47 20.7-29.05 20.04-28.98 19.38-28.91 18.65-29.03 17.92-29.15 17.58-29.05L17.58-29.05Q17.09-29 16.04-28.78 14.99-28.56 13.72-28.3 12.45-28.03 11.01-27.71 9.57-27.39 8.28-27.12 6.98-26.86 5.96-26.61 4.93-26.37 4.44-26.27L4.44-26.27Q3.66-25.98 3.56-25.54 3.47-25.1 3.47-24.51L3.47-24.51Q3.47-23.49 3.59-22.22 3.71-20.95 3.88-19.7 4.05-18.46 4.22-17.43 4.39-16.41 4.44-15.92L4.44-15.92Q4.64-15.87 5.18-15.87 5.71-15.87 5.91-15.87L5.91-15.87Q7.03-15.87 8.11-16.06 9.18-16.26 10.25-16.5 11.33-16.75 12.45-16.92 13.57-17.09 14.75-17.09L14.75-17.09 14.75-15.28Q14.26-15.28 13.38-15.21 12.5-15.14 11.45-14.94 10.4-14.75 9.33-14.53 8.25-14.31 7.37-14.06 6.49-13.82 5.93-13.57 5.37-13.33 5.37-13.09L5.37-13.09 5.37-2.93Q7.67-2.93 9.94-3.08 12.21-3.22 14.5-3.39 16.8-3.56 19.09-3.71 21.39-3.86 23.68-3.86L23.68-3.86Q23.68-3.27 23.29-2.91 22.9-2.54 22.39-2.32 21.88-2.1 21.29-2 20.7-1.9 20.41-1.86L20.41-1.86Q20.21-1.81 19.19-1.71 18.16-1.61 16.65-1.42 15.14-1.22 13.28-1.03 11.43-0.83 9.62-0.63 7.81-0.44 6.2-0.27 4.59-0.1 3.52 0L3.52 0Q3.37 0.05 3.08 0.05L3.08 0.05Q3.08-6.49 2.66-13.16 2.25-19.82 0.68-26.27ZM25.53-4.2L25.53-4.2Q25.53-6.98 27.07-8.25 28.61-9.52 31.1-9.52L31.1-9.52Q32.08-9.52 32.93-9.47 33.79-9.42 34.57-9.23 35.35-9.03 36.11-8.64 36.86-8.25 37.69-7.52L37.69-7.52Q37.69-7.67 37.72-8.13 37.74-8.59 37.74-9.13 37.74-9.67 37.74-10.13 37.74-10.6 37.74-10.79L37.74-10.79Q37.69-11.67 37.69-13.06 37.69-14.45 37.47-15.92 37.25-17.38 36.59-18.7 35.94-20.02 34.47-20.7L34.47-20.7Q33.44-20.7 32.57-20.36 31.69-20.02 30.81-19.63 29.93-19.24 29.05-18.92 28.17-18.6 27.15-18.6L27.15-18.6Q27.15-19.82 27.9-20.63 28.66-21.44 29.73-21.88 30.81-22.31 31.98-22.46 33.15-22.61 34.03-22.61L34.03-22.61Q34.91-22.46 35.67-22.27 36.42-22.07 37.08-21.48 37.74-20.9 38.3-19.7 38.86-18.51 39.28-16.36 39.69-14.21 40.01-10.91 40.33-7.62 40.52-2.83L40.52-2.83Q40.62-2.2 40.11-1.73 39.6-1.27 38.72-0.95 37.84-0.63 36.74-0.42 35.64-0.2 34.52-0.1 33.4 0 32.37 0.05 31.35 0.1 30.66 0.1L30.66 0.1Q29.78 0.1 28.88-0.2 27.98-0.49 27.22-1.05 26.46-1.61 26-2.42 25.53-3.22 25.53-4.2ZM31.88-7.62L31.88-7.62Q29.44-6.93 28.46-5.98 27.49-5.03 27.61-4.15 27.73-3.27 28.76-2.56 29.78-1.86 31.25-1.64 32.71-1.42 34.42-1.88 36.13-2.34 37.69-3.71L37.69-3.71Q37.11-5.13 36.52-5.88 35.94-6.64 35.25-7.03 34.57-7.42 33.74-7.52 32.91-7.62 31.88-7.62ZM45.01-3.96L45.01-3.96Q45.89-3.96 46.65-3.61 47.41-3.27 48.14-2.86 48.87-2.44 49.63-2.12 50.39-1.81 51.26-1.81L51.26-1.81Q52.29-1.81 53.39-2.17 54.49-2.54 55.41-3.2 56.34-3.86 56.93-4.81 57.51-5.76 57.51-6.88L57.51-6.88Q57.56-7.23 57.54-7.71 57.51-8.2 57.22-8.72 56.93-9.23 56.25-9.69 55.56-10.16 54.27-10.4 52.97-10.64 51.02-10.67 49.07-10.69 46.19-10.3L46.19-10.3Q45.45-10.3 44.77-10.72 44.09-11.13 43.55-11.74 43.01-12.35 42.67-13.06 42.33-13.77 42.33-14.4L42.33-14.4Q42.33-16.31 43.13-17.5 43.94-18.7 45.21-19.41 46.48-20.12 48.04-20.41 49.6-20.7 51.22-20.7L51.22-20.7Q51.95-20.7 52.9-20.63 53.85-20.56 54.66-20.24 55.46-19.92 56.03-19.24 56.59-18.55 56.59-17.33L56.59-17.33Q56.49-16.5 56.32-16.33 56.15-16.16 55.83-16.43 55.51-16.7 55.07-17.19 54.63-17.68 54.02-18.14 53.41-18.6 52.56-18.85 51.7-19.09 50.63-18.85L50.63-18.85Q49.51-18.85 48.38-18.63 47.26-18.41 46.36-17.87 45.45-17.33 44.89-16.41 44.33-15.48 44.33-14.06L44.33-14.06Q44.33-13.33 44.99-13.06 45.65-12.79 46.75-12.79 47.85-12.79 49.24-12.87 50.63-12.94 52.09-12.94 53.56-12.94 54.93-12.72 56.29-12.5 57.34-11.84 58.39-11.18 58.98-9.96 59.57-8.74 59.42-6.79L59.42-6.79Q59.42-5.37 58.61-4.1 57.81-2.83 56.56-1.88 55.32-0.93 53.8-0.39 52.29 0.15 50.87 0L50.87 0Q50.29-0.05 49.29-0.32 48.29-0.59 47.33-1.07 46.38-1.56 45.7-2.27 45.01-2.98 45.01-3.96ZM73.38 20.17L71.18 20.02Q71.18 17.58 71.62 14.99 72.06 12.4 72.53 9.81 72.99 7.23 73.31 4.64 73.63 2.05 73.38-0.44L73.38-0.44 61.22-21.04Q62.3-22.02 62.93-22.14 63.57-22.27 63.66-22.17L63.66-22.17Q64.01-21.68 64.81-20.36 65.62-19.04 66.67-17.29 67.72-15.53 68.89-13.57 70.06-11.62 71.11-9.86 72.16-8.11 72.92-6.74 73.67-5.37 73.97-4.83L73.97-4.83 76.21-22.95 78.65-21.73 73.38 20.17ZM105.16-17.72L105.16-17.72Q104.72-17.87 103.97-17.85 103.21-17.82 102.36-17.75 101.5-17.68 100.72-17.58 99.94-17.48 99.4-17.48L99.4-17.48Q99.16-17.48 99.08-18.19 99.01-18.9 98.86-20.12L98.86-20.12 105.75-20.61Q105.9-22.31 105.94-23.05 105.99-23.78 105.97-24.29 105.94-24.8 105.92-25.46 105.9-26.12 105.9-27.54L105.9-27.54Q107.17-27.73 107.82-27.66 108.48-27.59 108.73-27.29 108.97-27 108.95-26.44 108.92-25.88 108.8-25.05 108.68-24.22 108.61-23.05 108.53-21.88 108.68-20.41L108.68-20.41 114.54-20.61 114.54-18.21Q114.15-18.21 113.32-18.16 112.49-18.12 111.54-18.07 110.58-18.02 109.78-17.97 108.97-17.92 108.58-17.77L108.58-17.77Q108.19-16.02 107.75-14.01 107.31-12.01 107.17-10.06 107.02-8.11 107.26-6.42 107.51-4.74 108.48-3.64 109.46-2.54 111.27-2.12 113.07-1.71 116.05-2.39L116.05-2.39Q115.95-1.66 115.49-1.2 115.03-0.73 114.42-0.46 113.81-0.2 113.12-0.07 112.44 0.05 111.9 0.05L111.9 0.05Q109.41 0.05 107.95-0.85 106.48-1.76 105.75-3.22 105.02-4.69 104.82-6.57 104.63-8.45 104.7-10.4 104.77-12.35 104.97-14.26 105.16-16.16 105.16-17.72ZM117.42-19.04L117.42-19.04Q118-19.29 118.44-19.14 118.88-18.99 119.17-18.6 119.47-18.21 119.61-17.7 119.76-17.19 119.86-16.7L119.86-16.7Q120.49-17.77 121.69-18.43 122.89-19.09 124.25-19.31 125.62-19.53 126.99-19.41 128.35-19.29 129.31-18.82 130.26-18.36 130.65-17.55 131.04-16.75 130.45-15.67L130.45-15.67Q129.18-16.41 127.79-16.85 126.4-17.29 125.08-17.14 123.76-16.99 122.64-16.14 121.52-15.28 120.79-13.43 120.05-11.57 119.88-8.52 119.71-5.47 120.3-0.93L120.3-0.93 118.44-0.93Q118.44-0.93 118.37-1.73 118.3-2.54 118.22-3.86 118.15-5.18 118.03-6.79 117.9-8.4 117.81-10.06 117.71-11.72 117.64-13.26 117.56-14.79 117.47-15.92L117.47-15.92Q117.47-16.06 117.44-16.5 117.42-16.94 117.42-17.46 117.42-17.97 117.42-18.41 117.42-18.85 117.42-19.04ZM132.65-4.2L132.65-4.2Q132.65-6.98 134.19-8.25 135.72-9.52 138.21-9.52L138.21-9.52Q139.19-9.52 140.05-9.47 140.9-9.42 141.68-9.23 142.46-9.03 143.22-8.64 143.98-8.25 144.81-7.52L144.81-7.52Q144.81-7.67 144.83-8.13 144.86-8.59 144.86-9.13 144.86-9.67 144.86-10.13 144.86-10.6 144.86-10.79L144.86-10.79Q144.81-11.67 144.81-13.06 144.81-14.45 144.59-15.92 144.37-17.38 143.71-18.7 143.05-20.02 141.58-20.7L141.58-20.7Q140.56-20.7 139.68-20.36 138.8-20.02 137.92-19.63 137.04-19.24 136.16-18.92 135.29-18.6 134.26-18.6L134.26-18.6Q134.26-19.82 135.02-20.63 135.77-21.44 136.85-21.88 137.92-22.31 139.09-22.46 140.27-22.61 141.14-22.61L141.14-22.61Q142.02-22.46 142.78-22.27 143.54-22.07 144.2-21.48 144.86-20.9 145.42-19.7 145.98-18.51 146.39-16.36 146.81-14.21 147.13-10.91 147.44-7.62 147.64-2.83L147.64-2.83Q147.74-2.2 147.22-1.73 146.71-1.27 145.83-0.95 144.95-0.63 143.85-0.42 142.76-0.2 141.63-0.1 140.51 0 139.48 0.05 138.46 0.1 137.78 0.1L137.78 0.1Q136.9 0.1 135.99-0.2 135.09-0.49 134.33-1.05 133.58-1.61 133.11-2.42 132.65-3.22 132.65-4.2ZM139-7.62L139-7.62Q136.55-6.93 135.58-5.98 134.6-5.03 134.72-4.15 134.85-3.27 135.87-2.56 136.9-1.86 138.36-1.64 139.83-1.42 141.54-1.88 143.24-2.34 144.81-3.71L144.81-3.71Q144.22-5.13 143.63-5.88 143.05-6.64 142.37-7.03 141.68-7.42 140.85-7.52 140.02-7.62 139-7.62ZM149.54-8.35L149.54-8.35Q149.54-10.16 150.13-12.35 150.71-14.55 151.84-16.43 152.96-18.31 154.62-19.58 156.28-20.85 158.48-20.85L158.48-20.85Q159.6-21 160.28-20.63 160.97-20.26 161.33-19.48 161.7-18.7 161.82-17.7 161.94-16.7 161.97-15.65 161.99-14.6 161.97-13.7 161.94-12.79 162.04-12.21L162.04-12.21 160.82-12.21Q160.77-12.5 160.65-13.6 160.53-14.7 160.23-15.87 159.94-17.04 159.43-17.97 158.92-18.9 157.99-18.9L157.99-18.9Q156.62-18.9 155.42-17.82 154.23-16.75 153.35-15.23 152.47-13.72 151.93-12.11 151.4-10.5 151.4-9.42L151.4-9.42Q151.44-8.2 151.74-6.76 152.03-5.32 152.69-4.15 153.35-2.98 154.42-2.25 155.5-1.51 157.06-1.81L157.06-1.81Q158.23-1.81 159.31-2.29 160.38-2.78 161.41-3.32 162.43-3.86 163.48-4.35 164.53-4.83 165.7-4.83L165.7-4.83Q165.7-3.56 164.77-2.61 163.85-1.66 162.5-1.07 161.16-0.49 159.67-0.2 158.18 0.1 157.16 0.1L157.16 0.1Q155.5 0.1 154.11-0.59 152.71-1.27 151.69-2.42 150.66-3.56 150.1-5.1 149.54-6.64 149.54-8.35ZM169.66-1.32L169.66-1.32Q169.61-2.34 169.44-4.47 169.26-6.59 169.07-9.25 168.87-11.91 168.68-14.89 168.48-17.87 168.31-20.53 168.14-23.19 168-25.32 167.85-27.44 167.8-28.47L167.8-28.47Q167.75-28.91 167.73-30 167.7-31.1 167.65-32.35 167.6-33.59 167.58-34.69 167.56-35.79 167.56-36.23L167.56-36.23Q168.24-36.23 168.78-35.96 169.31-35.69 169.66-35.06L169.66-35.06Q169.75-34.03 169.87-32.15 170-30.27 170.14-27.83 170.29-25.39 170.46-22.61 170.63-19.82 170.78-17.09L170.78-17.09Q170.92-17.33 171.07-17.53 171.22-17.72 171.27-17.77L171.27-17.77Q171.8-18.36 172.54-19.14 173.27-19.92 174.07-20.75 174.88-21.58 175.69-22.39 176.49-23.19 177.15-23.85 177.81-24.51 178.25-24.9 178.69-25.29 178.79-25.29L178.79-25.29 180.64-24.37Q179.81-23.63 178.74-22.66 177.66-21.68 176.64-20.58 175.61-19.48 174.66-18.29 173.71-17.09 173.12-15.92L173.12-15.92Q173.12-15.87 173.1-15.7 173.07-15.53 173.07-15.43L173.07-15.43Q173.07-15.38 173.1-15.21 173.12-15.04 173.12-14.99L173.12-14.99 184.4-1.86Q184.4-1.81 184.43-1.66 184.45-1.51 184.45-1.42L184.45-1.42Q184.45-0.49 183.47 0L183.47 0 171.27-14.06Q171.22-14.11 171.14-14.23 171.07-14.36 170.97-14.5L170.97-14.5 171.51-5.03Q171.51-4.79 171.54-4.1 171.56-3.42 171.58-2.61 171.61-1.81 171.63-1.1 171.66-0.39 171.66-0.15L171.66-0.15Q171.02-0.15 170.49-0.42 169.95-0.68 169.66-1.32Z" opacity="1" transform="matrix(1,0,0,1,0,0)" fill="#ececea" class="wordmark-text-0" data-fill-palette-color="quaternary" id="text-0"></path></svg></g></svg></g></svg></g></svg></g><g transform="matrix(1,0,0,1,68.97905447374839,0)"><svg viewBox="0 0 75.20033227966033 90.39469592752405" height="90.39469592752405" width="75.20033227966033"><g><svg xmlns="http://www.w3.org/2000/svg" viewBox="11.640509032652554 3.8898136992204027 76.71898193469488 92.22019150215489" x="0" y="0" height="90.39469592752405" width="75.20033227966033" class="icon-icon-0" data-fill-palette-color="quaternary" id="icon-0"><g data-name="Layer 2" fill="#ececea" data-fill-palette-color="quaternary"><path d="M25.39 90.38H43.29L59.62 95.91A4.1 4.1 0 0 0 60.85 96.11 3.83 3.83 0 0 0 64.48 93.52L65.56 90.38H74.56A3.19 3.19 0 0 0 77.8 87.2V54.57L88.15 24.27A3.75 3.75 0 0 0 87.97 21.37 3.84 3.84 0 0 0 85.76 19.43L77.76 16.74V12.8A3.19 3.19 0 0 0 74.57 9.62H56.71L40.38 4.09A3.85 3.85 0 0 0 35.52 6.48L34.44 9.62H25.44A3.19 3.19 0 0 0 22.2 12.8V45.43L11.85 75.73A3.75 3.75 0 0 0 12.03 78.63 3.84 3.84 0 0 0 14.24 80.57L22.24 83.26V87.2A3.19 3.19 0 0 0 25.39 90.38M25.39 11.38H74.61A1.38 1.38 0 0 1 76 12.8V87.2A1.38 1.38 0 0 1 74.61 88.58H25.39A1.38 1.38 0 0 1 24 87.2V12.8A1.38 1.38 0 0 1 25.39 11.42ZM62.78 92.94A2 2 0 0 1 60.2 94.2L48.91 90.38H63.65ZM85.18 21.14A2 2 0 0 1 86.45 23.69L77.8 49V18.64ZM37.18 7.06A2 2 0 0 1 39.1 5.69 2.2 2.2 0 0 1 39.76 5.8L51.09 9.62H36.35ZM14.78 78.86A2 2 0 0 1 13.51 76.31L22.2 51V81.36Z" fill="#ececea" data-fill-palette-color="quaternary"></path><path d="M42.94 52.9H57.06A2.9 2.9 0 0 0 57.06 47.1H42.94A2.9 2.9 0 0 0 42.94 52.9M42.94 49.1H57.06A0.9 0.9 0 0 1 57.06 50.9H42.94A0.9 0.9 0 0 1 42.94 49.1" fill="#ececea" data-fill-palette-color="quaternary"></path></g></svg></g></svg></g><g></g></svg></g></svg></g></svg></g></svg></g><defs></defs></svg><rect width="342.85155851775386" height="342.85155851775386" fill="none" stroke="none" visibility="hidden"></rect></g></svg></g></svg>